<svg width="28" height="30" viewBox="0 0 28 30" fill="none" xmlns="http://www.w3.org/2000/svg">
<path d="M12.3176 16.25C12.3176 17.1125 11.6793 17.8125 10.8929 17.8125C10.1064 17.8125 9.46817 17.1125 9.46817 16.25C9.46817 15.3875 10.1064 14.6875 10.8929 14.6875C11.6793 14.6875 12.3176 15.3875 12.3176 16.25ZM17.7314 14.6875C16.945 14.6875 16.3067 15.3875 16.3067 16.25C16.3067 17.1125 16.945 17.8125 17.7314 17.8125C18.5179 17.8125 19.1561 17.1125 19.1561 16.25C19.1561 15.3875 18.5179 14.6875 17.7314 14.6875ZM25.7098 15C25.7098 21.9 20.6036 27.5 14.3122 27.5C8.02068 27.5 2.91455 21.9 2.91455 15C2.91455 8.1 8.02068 2.5 14.3122 2.5C20.6036 2.5 25.7098 8.1 25.7098 15ZM12.7849 5.15C14.3805 8.05 17.2755 10 20.5808 10C21.1051 10 21.618 9.9375 22.1081 9.85C20.5125 6.95 17.6175 5 14.3122 5C13.7879 5 13.275 5.0625 12.7849 5.15ZM5.67277 11.8375C7.62176 10.625 9.12625 8.65 9.8443 6.2875C7.89531 7.5 6.39082 9.475 5.67277 11.8375ZM23.4302 15C23.4302 14.025 23.2935 13.0875 23.0541 12.2C22.2563 12.3875 21.4357 12.5 20.5808 12.5C17.0134 12.5 13.8335 10.7 11.7363 7.8875C10.5395 11.0875 8.15745 13.6 5.19407 14.825C5.20547 14.875 5.19407 14.9375 5.19407 15C5.19407 20.5125 9.28581 25 14.3122 25C19.3385 25 23.4302 20.5125 23.4302 15Z" fill="black"/>
</svg>
