<svg width="183" height="78" viewBox="0 0 183 78" fill="none" xmlns="http://www.w3.org/2000/svg">
<path d="M2.5625 71H4.46875V56.8594H4.57812L10.7969 71H12.4375L18.6719 56.8594H18.7656V71H20.6875V53.3438H18.2969L11.6562 68.4531H11.5781L4.9375 53.3438H2.5625V71ZM24.1562 71H26.2188V53.3438H24.1562V71ZM29.6875 71H31.5938V56.8594H31.7031L37.9219 71H39.5625L45.7969 56.8594H45.8906V71H47.8125V53.3438H45.4219L38.7812 68.4531H38.7031L32.0625 53.3438H29.6875V71ZM51.2812 71H53.3438V53.3438H51.2812V71ZM56.1875 71H69.8125V69.2656H58.7812V69.2188L69.6562 54.75V53.3438H56.5312V55.0781H67.1094V55.125L56.1875 69.6094V71ZM79.9219 71.2812C84.4219 71.2812 87.1719 68.6875 87.1719 64.8281V53.3438H85.1094V64.6875C85.1094 67.5938 83.1875 69.5 79.9219 69.5C76.6562 69.5 74.7188 67.5938 74.7188 64.6875V53.3438H72.6562V64.8281C72.6562 68.6875 75.4219 71.2812 79.9219 71.2812ZM90.6562 71H92.7188V64.8438L94.9219 62.5L101.781 71H104.359L96.4062 61.125L103.656 53.3438H101.156L92.7969 62.3906H92.7188V53.3438H90.6562V71ZM113.172 71.2812C117.672 71.2812 120.422 68.6875 120.422 64.8281V53.3438H118.359V64.6875C118.359 67.5938 116.438 69.5 113.172 69.5C109.906 69.5 107.969 67.5938 107.969 64.6875V53.3438H105.906V64.8281C105.906 68.6875 108.672 71.2812 113.172 71.2812Z" fill="black"/>
<path d="M155.567 64.0312L151.513 68.4982C151.513 68.4982 146.853 70.7569 146.776 74.0491" stroke="#231F20" stroke-width="3" stroke-miterlimit="10" stroke-linecap="round" stroke-linejoin="round"/>
<path d="M143.14 72.6272C143.14 72.6272 144.696 66.2393 151.512 68.503" stroke="#231F20" stroke-width="3" stroke-miterlimit="10" stroke-linecap="round" stroke-linejoin="round"/>
<path d="M163.613 66.4814L159.414 71.1097C159.414 71.1097 155.479 72.7079 155.406 76.0002" stroke="#231F20" stroke-width="3" stroke-miterlimit="10" stroke-linecap="round" stroke-linejoin="round"/>
<path d="M151.047 75.2341C151.047 75.2341 152.604 68.8462 159.419 71.11" stroke="#231F20" stroke-width="3" stroke-miterlimit="10" stroke-linecap="round" stroke-linejoin="round"/>
<path d="M181.05 74.9414C181.05 74.952 181.056 74.9625 181.056 74.9678" stroke="#231F20" stroke-width="3" stroke-miterlimit="10" stroke-linecap="round" stroke-linejoin="round"/>
<path d="M151.512 36.2568C151.512 36.2568 149.154 49.6779 170.041 60.094C178.485 64.3039 180.859 74.0949 181.045 74.9318" stroke="#231F20" stroke-width="3" stroke-miterlimit="10" stroke-linecap="round" stroke-linejoin="round"/>
<path d="M181.055 74.9867C184.396 40.1334 167.817 26.9796 167.817 26.9796C168.2 25.457 168.407 23.8588 168.407 22.2102C168.407 18.0709 167.119 14.2493 164.937 11.1638C165.552 9.06138 167.548 3.9491 170.118 2.87017C170.118 2.87017 165.552 -0.331314 158.773 5.54731C156.441 4.34739 153.824 3.67684 151.052 3.67684C148.162 3.67684 145.431 4.41293 143.027 5.70865C136.149 -0.386772 131.5 2.87017 131.5 2.87017C134.313 4.04489 135.87 10.0496 136.309 11.6679C134.339 14.6627 133.186 18.2927 133.186 22.2102C133.186 25.5226 134.008 28.6282 135.456 31.3205C135.456 31.3205 126.127 55.5862 155.153 63.9151C155.287 63.9555 155.422 63.9908 155.556 64.0311C177.487 70.3584 180.719 73.7112 181.035 74.9262C181.035 74.9313 181.035 74.9363 181.04 74.9413C181.04 74.9514 181.045 74.9615 181.045 74.9666C181.055 74.9766 181.055 74.9817 181.055 74.9867Z" stroke="#231F20" stroke-width="3" stroke-miterlimit="10" stroke-linecap="round" stroke-linejoin="round"/>
</svg>
