<svg width="100" height="80" viewBox="0 0 100 80" fill="none" xmlns="http://www.w3.org/2000/svg">
<rect width="100" height="80" fill="#2B2B2B"/>
<path d="M66.5754 42.9053C65.2508 38.8254 63.5072 34.9437 60.7103 31.585C59.9479 30.6693 59.2331 29.7143 58.5179 28.7622C57.0743 26.8415 56.2347 24.6435 55.8884 22.328C55.5499 20.064 55.0547 17.8763 54.1262 15.7764C54.0089 15.5117 54.0246 15.1231 54.1295 14.8465C54.3899 14.1599 55.0698 13.4525 54.9711 12.8495C54.8299 11.986 55.1789 11.5451 55.6404 11.0031C55.7091 10.9227 55.7344 10.8069 55.75 10.6832C55.7733 10.4957 55.6341 10.3065 55.4398 10.2595C55.308 10.2274 55.1819 10.2092 55.0842 10.252C53.3297 11.0216 51.4427 11.6221 49.8993 12.6925C48.7803 13.4682 47.8034 13.8078 46.5921 13.4266C44.5715 12.791 42.6054 12.8878 40.6144 13.5324C40.2347 13.6553 39.6838 13.6499 39.3484 13.4661C37.418 12.4097 35.5231 11.2915 33.619 10.1898C33.4372 10.0849 33.2041 10 33.0988 10C32.9934 10 32.9698 10.1558 33.0402 10.3503C33.1223 10.5782 33.2067 10.8045 33.3369 11.0024C33.809 11.7195 34.6481 12.2743 34.2055 13.3439C34.1309 13.5245 34.329 13.9295 34.5233 14.0805C35.6098 14.9234 35.3548 16.0923 35.0657 17.048C34.5355 18.7997 34.3863 20.5526 34.6876 22.303C34.9241 23.6768 34.5857 24.8506 34.1266 26.0998C33.7473 27.1314 33.5112 28.2521 33.4472 29.3469C33.3456 31.0861 33.3401 32.844 33.4792 34.5801C33.6276 36.4286 33.936 38.2705 34.277 40.0968C34.6235 41.9549 35.1301 43.7844 35.4959 45.6394C35.6863 46.6056 35.4722 47.7246 35.8976 48.5497C36.3861 49.4977 36.4008 50.3761 36.346 51.3293C36.2276 53.4037 36.4733 55.437 37.8684 57.0645C39.1391 58.547 40.111 60.2937 41.8984 61.3596C43.0271 62.0322 42.9302 62.9583 41.7294 63.5804C40.9286 63.995 40.0124 64.2043 39.1374 64.4726C38.0702 64.7999 37.4039 65.7072 37.4751 66.7977C37.5257 67.5721 37.9429 68.0061 38.8971 68.2447C39.1016 68.2958 39.164 68.1923 39.04 68.0254C38.3256 67.0585 38.3012 66.5528 38.9701 66.0777C39.1407 65.9564 39.3211 66.0433 39.3721 66.2437C39.5483 66.9336 39.7835 66.9564 40.6884 66.6542C41.0095 66.547 41.3315 66.4416 41.6164 66.3484C41.8166 66.283 42.0691 66.3719 42.1799 66.5471C42.3396 66.7993 42.4843 67.0278 42.6241 67.2478C42.7354 67.423 42.8711 67.5453 42.9276 67.5211C42.9841 67.4968 43.03 67.3095 43.03 67.1035V66.0946C43.03 65.8882 43.1185 65.8641 43.2277 66.0407C43.3297 66.2055 43.4174 66.3469 43.5093 66.4961C43.6185 66.6725 43.8279 66.6975 43.9772 66.5518C44.3076 66.2286 44.6001 65.9409 44.8963 65.6574C45.1648 65.4001 45.4366 65.1458 45.7085 64.8916C45.8611 64.749 45.9689 64.802 45.8969 64.9958C45.8501 65.121 45.7928 65.2369 45.7413 65.3553C44.9873 67.0908 45.5209 68.8957 47.1153 69.957C47.1727 69.9953 47.2527 70.0011 47.3374 69.9999C47.4647 69.9978 47.4572 69.8684 47.3315 69.7028C46.86 69.0817 46.5527 68.4118 46.7664 67.5504C46.8161 67.3497 46.9915 67.327 47.1693 67.4379C47.6561 67.7426 47.9882 67.3736 48.2836 66.9682C48.6519 66.4629 48.9925 65.9357 49.3128 65.3999C49.7141 64.7288 50.2612 64.2224 51.0793 64.4029C52.02 64.6107 53.0336 64.8254 53.3206 65.9807C53.4981 66.6949 53.9022 67.2052 54.6815 67.3836C54.8152 67.4142 54.939 67.4854 55.0912 67.5761C55.2711 67.6836 55.2855 67.868 55.1202 67.9961C54.9382 68.1374 54.7932 68.2499 54.6399 68.3509C54.502 68.4416 54.357 68.5212 54.1876 68.6136C54.003 68.7136 54.0253 68.8089 54.2361 68.8164C55.7399 68.8688 56.0834 68.5061 56.2078 67.0091C56.257 66.4127 56.2334 65.8105 56.2225 65.2734C56.2183 65.0672 56.3267 65.0289 56.4611 65.1879C57.2691 66.1427 58.1806 67.1893 59.0358 68.2789C59.5413 68.9227 60.1582 69.2948 60.9599 69.3252C61.8475 69.3587 62.7372 69.3401 63.7137 69.3353C63.9244 69.3342 64.0725 69.1688 64.0436 68.9643C63.7976 67.1977 63.5932 65.6481 63.3533 64.1036C63.2263 63.2871 63.2669 62.5535 63.6546 61.7679C64.2033 60.6551 64.6371 59.4731 64.9839 58.2832C65.9702 54.9022 66.1455 51.4364 66.0426 47.9451C66.0367 47.7389 66.1636 47.6578 66.3271 47.7646C66.4906 47.8713 66.5986 47.7921 66.5678 47.5878C66.4586 46.8607 66.3604 46.2052 66.2584 45.5252C66.2276 45.3211 66.328 45.2697 66.4823 45.4103C66.5033 45.4296 66.5239 45.4482 66.5443 45.4668C66.6985 45.6077 66.8726 45.7017 66.9333 45.6769C66.994 45.6522 67.0159 45.4672 66.988 45.2623C66.8798 44.4666 66.8195 43.6577 66.5754 42.9053Z" fill="#F3F5F7"/>
</svg>
