<svg width="18" height="19" viewBox="0 0 18 19" fill="none" xmlns="http://www.w3.org/2000/svg">
<path d="M11.8174 11.1914H11.2249L11.0149 10.9889C11.7499 10.1339 12.1924 9.02391 12.1924 7.81641C12.1924 5.12391 10.0099 2.94141 7.31738 2.94141C4.62488 2.94141 2.44238 5.12391 2.44238 7.81641C2.44238 10.5089 4.62488 12.6914 7.31738 12.6914C8.52488 12.6914 9.63488 12.2489 10.4899 11.5139L10.6924 11.7239V12.3164L14.4424 16.0589L15.5599 14.9414L11.8174 11.1914ZM7.31738 11.1914C5.44988 11.1914 3.94238 9.68391 3.94238 7.81641C3.94238 5.94891 5.44988 4.44141 7.31738 4.44141C9.18488 4.44141 10.6924 5.94891 10.6924 7.81641C10.6924 9.68391 9.18488 11.1914 7.31738 11.1914Z" fill="#C5C4CC"/>
</svg>
